#!OML:ASF C:\Vicon Data\Big\jianyuan-12\jianyuan\Session 1\Capture.male.ASF
:FULLY-SPECIFIED
:DEGREES
139
root -7.738368 17.027731 -12.492784 6.541495 3.009086 3.494179
lowerback -11.586649 1.881315 -6.117055 
upperback 1.698493 3.532297 -2.183289 
thorax 8.106198 1.467547 1.756560 
lowerneck -3.670391 -6.513000 -5.328931 
upperneck 7.796643 -9.223909 8.692113 
head 3.572812 -4.427453 3.069272 
rclavicle 0.000000 0.000000 
rhumerus -25.993257 -22.284196 -85.685938 
rradius 41.115047 
rwrist 27.523034 
rhand -19.422970 -5.017171 
rfingers 0.000000 
rthumb 6.896855 -34.884798 
lclavicle 0.000000 0.000000 
lhumerus -47.600519 36.609398 62.908762 
lradius 26.498631 
lwrist -54.741902 
lhand -8.071033 4.482998 
lfingers 0.000000 
lthumb 17.840447 33.684690 
rfemur 4.154111 0.889093 17.560268 
rtibia 29.180341 
rfoot -22.645289 -2.844532 
rtoes -17.302816 
lfemur -29.447949 -3.694182 -23.465146 
ltibia 20.964300 
lfoot -9.560512 8.108876 
ltoes -14.705145 
140
root -7.713391 17.033257 -12.404951 6.525572 3.070313 3.717558
lowerback -11.621567 1.863767 -6.303385 
upperback 1.675113 3.541425 -2.274860 
thorax 8.096242 1.464811 1.765386 
lowerneck -3.607953 -6.522993 -5.242127 
upperneck 7.767538 -9.240748 8.659099 
head 3.549433 -4.437055 3.047159 
rclavicle 0.000000 0.000000 
rhumerus -26.415460 -22.495286 -85.568283 
rradius 41.049362 
rwrist 27.378299 
rhand -19.431313 -5.257311 
rfingers 0.000000 
rthumb 6.888830 -35.125198 
lclavicle 0.000000 0.000000 
lhumerus -47.548974 36.658551 62.850153 
lradius 26.444116 
lwrist -55.081594 
lhand -8.188035 4.546690 
lfingers 0.000000 
lthumb 17.727865 33.758560 
rfemur 4.073559 0.685302 17.190513 
rtibia 29.929660 
rfoot -22.082097 -2.856647 
rtoes -17.226038 
lfemur -29.279699 -3.566909 -23.873614 
ltibia 21.288739 
lfoot -9.385644 7.656063 
ltoes -14.276662 
141
root -7.688694 17.037827 -12.315638 6.535383 3.173440 3.763493
lowerback -11.720660 1.828773 -6.320248 
upperback 1.653115 3.504442 -2.279138 
thorax 8.131478 1.445029 1.767608 
lowerneck -3.513684 -6.532998 -5.299513 
upperneck 7.700554 -9.249234 8.668461 
head 3.517294 -4.445970 3.062707 
rclavicle 0.000000 0.000000 
rhumerus -26.819656 -22.829243 -85.334315 
rradius 40.925990 
rwrist 27.563926 
rhand -19.240784 -5.323799 
rfingers 0.000000 
rthumb 7.072746 -35.185614 
lclavicle 0.000000 0.000000 
lhumerus -47.447994 36.633906 62.947194 
lradius 26.400029 
lwrist -55.105957 
lhand -8.148348 4.552536 
lfingers 0.000000 
lthumb 17.766090 33.760946 
rfemur 3.889620 0.372363 17.007249 
rtibia 30.749376 
rfoot -21.447180 -2.886008 
rtoes -17.572647 
lfemur -29.127390 -3.492729 -24.081389 
ltibia 21.553318 
lfoot -9.206231 7.273910 
ltoes -14.332509 
142
root -7.662508 17.042945 -12.226866 6.581416 3.281485 3.943265
lowerback -11.821201 1.747069 -6.462266 
upperback 1.615051 3.423061 -2.305679 
thorax 8.148115 1.398759 1.807498 
lowerneck -3.581285 -6.527790 -5.378976 
upperneck 7.868015 -9.243380 8.621584 
head 3.579765 -4.442560 3.056862 
rclavicle 0.000000 0.000000 
rhumerus -27.225194 -23.111911 -85.073674 
rradius 40.697117 
rwrist 27.891513 
rhand -19.111342 -5.240352 
rfingers 0.000000 
rthumb 7.197675 -35.097971 
lclavicle 0.000000 0.000000 
lhumerus -47.425907 36.735637 62.974294 
lradius 26.352716 
lwrist -55.249109 
lhand -8.046243 4.528628 
lfingers 0.000000 
lthumb 17.864370 33.728099 
rfemur 3.668797 0.049195 16.669201 
rtibia 31.577089 
rfoot -20.797809 -2.932661 
rtoes -17.342645 
lfemur -29.021553 -3.457443 -24.433520 
ltibia 21.861081 
lfoot -9.110489 6.894081 
ltoes -14.241447 
143
root -7.636821 17.046961 -12.137672 6.574445 3.381447 3.965470
lowerback -11.869818 1.735786 -6.418348 
upperback 1.587986 3.407148 -2.357109 
thorax 8.153485 1.394084 1.727076 
lowerneck -3.578235 -6.550085 -5.295934 
upperneck 7.880902 -9.281735 8.624791 
head 3.582269 -4.459474 3.042358 
rclavicle 0.000000 0.000000 
rhumerus -27.684309 -23.439766 -84.866255 
rradius 40.485113 
rwrist 28.100228 
rhand -19.252631 -5.261048 
rfingers 0.000000 
rthumb 7.061295 -35.123240 
lclavicle 0.000000 0.000000 
lhumerus -47.252335 36.738298 63.017425 
lradius 26.292426 
lwrist -55.306191 
lhand -7.885130 4.498624 
lfingers 0.000000 
lthumb 18.019351 33.683930 
rfemur 3.475758 -0.295847 16.493483 
rtibia 32.423143 
rfoot -20.111821 -3.015322 
rtoes -17.097295 
lfemur -28.876930 -3.384219 -24.611353 
ltibia 22.181518 
lfoot -9.019061 6.596683 
ltoes -13.972166 
144
root -7.612040 17.051255 -12.047753 6.544245 3.424370 3.948431
lowerback -11.917578 1.736555 -6.351700 
upperback 1.568659 3.402912 -2.381265 
thorax 8.165248 1.395431 1.665163 
lowerneck -3.531806 -6.558552 -5.325218 
upperneck 7.870991 -9.303915 8.727362 
head 3.579327 -4.469444 3.078319 
rclavicle 0.000000 0.000000 
rhumerus -28.131578 -23.954556 -84.580989 
rradius 40.262332 
rwrist 28.659209 
rhand -19.187762 -5.137769 
rfingers 0.000000 
rthumb 7.123912 -34.997882 
lclavicle 0.000000 0.000000 
lhumerus -47.041914 36.653668 63.178753 
lradius 26.283019 
lwrist -55.304435 
lhand -7.929550 4.676306 
lfingers 0.000000 
lthumb 17.976633 33.865526 
rfemur 3.259410 -0.566383 16.360073 
rtibia 33.320225 
rfoot -19.394430 -3.071544 
rtoes -16.975432 
lfemur -28.688553 -3.277103 -24.732412 
ltibia 22.481635 
lfoot -9.008388 6.419432 
ltoes -13.777167 
